<?xml version="1.0" standalone="no"?>
<!DOCTYPE svg PUBLIC "-//W3C//DTD SVG 20010904//EN"
 "http://www.w3.org/TR/2001/REC-SVG-20010904/DTD/svg10.dtd">
<svg version="1.0" xmlns="http://www.w3.org/2000/svg"
 width="700.000000pt" height="700.000000pt" viewBox="0 0 700.000000 700.000000"
 preserveAspectRatio="xMidYMid meet">
<metadata>
Created by potrace 1.14, written by Peter Selinger 2001-2017
</metadata>
<g transform="translate(0.000000,700.000000) scale(0.100000,-0.100000)"
fill="#000000" stroke="none">
<path d="M3235 6989 c-748 -57 -1459 -354 -2025 -844 -765 -664 -1210 -1636
-1210 -2645 0 -709 228 -1431 633 -2005 215 -304 525 -620 812 -827 783 -564
1741 -780 2695 -608 851 154 1631 639 2161 1346 332 441 558 969 648 1509 36
215 45 336 45 585 0 135 -5 295 -12 355 -51 444 -163 829 -351 1205 -176 352
-370 620 -660 911 -292 292 -551 480 -911 660 -565 282 -1197 406 -1825 358z
m2550 -1358 c22 -10 52 -31 67 -47 51 -55 58 -87 58 -281 0 -151 -3 -184 -19
-219 -26 -58 -92 -111 -155 -124 -35 -7 -736 -9 -2266 -8 l-2215 3 -40 22
c-51 27 -90 68 -109 115 -23 54 -23 372 0 426 20 49 60 90 109 113 39 18 121
19 2285 19 2164 0 2246 -1 2285 -19z m649 -1441 c72 -27 139 -88 173 -158 l28
-57 0 -475 0 -475 -28 -57 c-34 -70 -101 -131 -173 -158 -55 -20 -63 -20
-2934 -20 -2871 0 -2879 0 -2934 20 -72 27 -139 88 -173 158 l-28 57 0 475 0
475 28 57 c34 69 100 130 171 157 50 20 86 20 2933 20 2874 1 2882 1 2937 -19z
m-643 -2218 c36 -18 64 -43 84 -72 l30 -45 3 -190 3 -190 -28 -55 c-21 -40
-42 -63 -78 -85 l-48 -30 -2221 -3 c-1222 -2 -2240 0 -2262 3 -65 9 -129 57
-159 120 -26 53 -27 56 -23 242 l3 188 30 45 c20 29 48 54 84 72 l53 28 2238
0 2238 0 53 -28z"/>
</g>
</svg>
